# xmcd
#
# Track frame offsets:
#	150
#	9542
#	21849
#	32588
#	44728
#	61829
#	76473
#	89628
#	106263
#	115040
#	131106
#	141266
#	151958
#	167190
#	184669
#	197639
#
# Disc length: 2875 seconds
#
# Revision: 0
# Processed by: cddbd v1.5.2PL0 Copyright (c) Steve Scherf et al.
# Submitted via: audiograbber 1.83.01
#
DISCID=d70b3910
DTITLE=Rick and Thel Carey - On Our Selection
DYEAR=2006
DGENRE=Country
TTITLE0=On Our Selection
TTITLE1=With This Ring (I Thee Wed)
TTITLE2=Flowers For Mothers Day
TTITLE3=Call Of The Bellbird
TTITLE4=A Country Song
TTITLE5=Nothing OLasts Forever, Only Memories
TTITLE6=The Battered Stockman's Hat
TTITLE7=They Shall Not Grow Old
TTITLE8=I'm Coming Home
TTITLE9=Granny Jones Of Omeo
TTITLE10=A Guide Back Home
TTITLE11=Little Darling Pal Of Mine
TTITLE12=Pine Mountain Dance
TTITLE13=I've Got Rosie
TTITLE14=The Lesson
TTITLE15=A Different Kind Of Ranger
EXTD=
EXTT0=
EXTT1=
EXTT2=
EXTT3=
EXTT4=
EXTT5=
EXTT6=
EXTT7=
EXTT8=
EXTT9=
EXTT10=
EXTT11=
EXTT12=
EXTT13=
EXTT14=
EXTT15=
PLAYORDER=
